<svg xmlns="http://www.w3.org/2000/svg" width="65.231" height="66.412" viewBox="0 0 65.231 66.412"><defs><style>.a{fill:none;}.b,.c{stroke:none;}.c{fill:#392f94;}</style></defs><g class="a" transform="matrix(0.602, 0.799, -0.799, 0.602, 35.14, 0)"><path class="b" d="M22.392,4.591a3,3,0,0,1,5.217,0L47.453,39.518A3,3,0,0,1,44.845,44H5.155a3,3,0,0,1-2.608-4.482Z"/><path class="c" d="M 24.9999942779541 6.07275390625 L 24.99999618530273 6.072757720947266 C 24.99999618530273 6.072761535644531 24.99999618530273 6.072761535644531 24.9999942779541 6.072765350341797 L 5.154975891113281 40.99998474121094 C 5.154972076416016 40.9999885559082 5.15496826171875 40.99999237060547 5.15496826171875 41 C 5.15496826171875 41 5.15496826171875 41.00000381469727 5.15496826171875 41.00000381469727 C 5.154972076416016 41.00000381469727 5.154972076416016 41.00000381469727 5.154975891113281 41.00000381469727 L 44.84501266479492 40.99999237060547 L 24.9999942779541 6.07275390625 M 24.9999942779541 3.072757720947266 C 26.01668357849121 3.072757720947266 27.03337478637695 3.578750610351563 27.60836410522461 4.590732574462891 L 47.45338439941406 39.51796340942383 C 48.58970260620117 41.51789474487305 47.14521408081055 43.99999237060547 44.84501266479492 43.99999237060547 L 5.154975891113281 44.00000381469727 C 2.854774475097656 43.99999237060547 1.410285949707031 41.51789474487305 2.546604156494141 39.51796340942383 L 22.39162445068359 4.590732574462891 C 22.96661376953125 3.578750610351563 23.98330497741699 3.072757720947266 24.9999942779541 3.072757720947266 Z"/></g></svg>