<svg xmlns="http://www.w3.org/2000/svg" width="46.084" height="45.714" viewBox="0 0 46.084 45.714"><defs><style>.a{fill:none;}.b,.c{stroke:none;}.c{fill:#00d1ff;}</style></defs><g class="a" transform="translate(0 23.419) rotate(-42)"><path class="b" d="M14.909,4.442a3,3,0,0,1,5.183,0L32.368,25.488A3,3,0,0,1,29.777,30H5.223a3,3,0,0,1-2.591-4.512Z"/><path class="c" d="M 17.50000190734863 5.953908920288086 C 17.5 5.953908920288086 17.49999809265137 5.953908920288086 17.50000190734863 5.953899383544922 L 5.223112106323242 27 L 29.77689170837402 27 L 17.5000114440918 5.953908920288086 C 17.50000762939453 5.953908920288086 17.5000057220459 5.953908920288086 17.50000190734863 5.953908920288086 M 17.50000190734863 2.953907012939453 C 18.50626182556152 2.953907012939453 19.51252174377441 3.450035095214844 20.09134292602539 4.442289352416992 L 32.36823272705078 25.48838996887207 C 33.53488159179688 27.48835945129395 32.09226226806641 30 29.77689170837402 30 L 5.223112106323242 30 C 2.907741546630859 30 1.465122222900391 27.48835945129395 2.631771087646484 25.48838996887207 L 14.90866279602051 4.442289352416992 C 15.48748207092285 3.450035095214844 16.49374198913574 2.953907012939453 17.50000190734863 2.953907012939453 Z"/></g></svg>