<svg xmlns="http://www.w3.org/2000/svg" width="61.423" height="61.595" viewBox="0 0 61.423 61.595"><defs><style>.a{fill:none;}.b,.c{stroke:none;}.c{fill:#ff0ace;}</style></defs><g class="a" transform="matrix(0.695, 0.719, -0.719, 0.695, 28.774, 0)"><path class="b" d="M20.913,4.4a3,3,0,0,1,5.173,0L44.345,35.48A3,3,0,0,1,41.758,40H5.242a3,3,0,0,1-2.587-4.52Z"/><path class="c" d="M 23.49998664855957 5.922428131103516 L 5.241935729980469 36.9999885559082 C 5.241935729980469 36.9999885559082 5.241935729980469 36.9999885559082 5.241924285888672 36.9999885559082 L 41.75794982910156 36.9999885559082 C 41.75796508789063 36.99995422363281 41.75798416137695 36.99992370605469 41.75806427001953 36.99999618530273 L 23.49999618530273 5.922435760498047 C 23.4999942779541 5.922431945800781 23.49999237060547 5.922431945800781 23.49999046325684 5.922428131103516 C 23.4999885559082 5.922428131103516 23.4999885559082 5.922428131103516 23.49998664855957 5.922428131103516 M 23.49999046325684 2.922428131103516 C 24.5034065246582 2.922428131103516 25.50682067871094 3.415878295898438 26.08662605285645 4.402778625488281 L 44.34469604492188 35.4803466796875 C 45.51957321166992 37.48014450073242 44.07735061645508 39.9999885559082 41.75807952880859 39.9999885559082 C 41.75793838500977 39.9999885559082 41.75820922851563 39.9999885559082 41.75806427001953 39.9999885559082 L 5.241924285888672 39.9999885559082 C 2.922405242919922 39.99999618530273 1.4803466796875 37.48026657104492 2.655296325683594 35.4803466796875 L 20.91335678100586 4.402778625488281 C 21.49316024780273 3.415878295898438 22.4965763092041 2.922428131103516 23.49999046325684 2.922428131103516 Z"/></g></svg>