<svg xmlns="http://www.w3.org/2000/svg" width="18.628" height="19.823" viewBox="0 0 18.628 19.823"><defs><style>.a{fill:none;}.b,.c{stroke:none;}.c{fill:#7a72ec;}</style></defs><g class="a" transform="translate(13.156) rotate(70)"><path class="b" d="M5.4,4.558a3,3,0,0,1,5.209,0l2.83,4.953A3,3,0,0,1,10.83,14H5.17a3,3,0,0,1-2.6-4.488Z"/><path class="c" d="M 7.999998569488525 6.046695709228516 L 5.169538497924805 10.99999618530273 L 10.83045864105225 11.0000057220459 L 7.999998569488525 6.046695709228516 M 7.999998569488525 3.046695709228516 C 9.014443397521973 3.046695709228516 10.02888870239258 3.550556182861328 10.60472869873047 4.558276176452637 L 13.43518829345703 9.511585235595703 C 14.57802867889404 11.51155567169189 13.1339282989502 13.99999618530273 10.83045864105225 13.99999618530273 L 5.169538497924805 13.99999618530273 C 2.866068840026855 13.99999618530273 1.421968460083008 11.51155567169189 2.56480884552002 9.511585235595703 L 5.395268440246582 4.558276176452637 C 5.971108436584473 3.550556182861328 6.985553741455078 3.046695709228516 7.999998569488525 3.046695709228516 Z"/></g></svg>