<svg xmlns="http://www.w3.org/2000/svg" width="105.148" height="101.122" viewBox="0 0 105.148 101.122"><defs><style>.a{fill:none;}.b,.c{stroke:none;}.c{fill:#00d1ff;}</style></defs><g class="a" transform="translate(0 40.5) rotate(-30)"><path class="b" d="M37.9,4.488a3,3,0,0,1,5.193,0L78.4,65.5A3,3,0,0,1,75.8,70H5.2a3,3,0,0,1-2.6-4.5Z"/><path class="c" d="M 40.4999885559082 5.990501403808594 L 5.201652526855469 67 C 5.201652526855469 67 5.201652526855469 67 5.201637268066406 67 L 75.79834747314453 67 C 75.79835510253906 67 75.79835510253906 67 75.79835510253906 67 C 75.79835510253906 67 75.79835510253906 67 75.79835510253906 67 C 75.79835510253906 66.99999237060547 75.79835510253906 66.99999237060547 75.79834747314453 66.99998474121094 L 40.5 5.990516662597656 C 40.49999618530273 5.990509033203125 40.49999618530273 5.990509033203125 40.49999237060547 5.990501403808594 C 40.49999237060547 5.990501403808594 40.4999885559082 5.990501403808594 40.4999885559082 5.990501403808594 M 40.49999237060547 2.990501403808594 C 41.50951766967773 2.990501403808594 42.51904296875 3.489707946777344 43.09669876098633 4.488128662109375 L 78.39505004882813 65.49761199951172 C 79.55218505859375 67.49761199951172 78.10896301269531 70 75.79834747314453 70 L 5.201637268066406 70 C 2.891021728515625 70 1.447799682617188 67.49761199951172 2.604949951171875 65.49761199951172 L 37.90328598022461 4.488128662109375 C 38.4809455871582 3.489707946777344 39.4904670715332 2.990501403808594 40.49999237060547 2.990501403808594 Z"/></g></svg>