<svg xmlns="http://www.w3.org/2000/svg" width="385.021" height="205.565" viewBox="0 0 385.021 205.565"><defs><style>.a{fill:#2a3241;}</style></defs><path d="M17.851,160.488H0V14.68H17.851Z" transform="translate(0 -3.798)"/><path d="M46.24,79.974V14.68H64.091V79.974Z" transform="translate(-11.962 -3.798)"/><path d="M114.89,24.6H85.29V0h16.976V10.882h35.479L115.506,76.177H96.825Z" transform="translate(-22.064)"/><path d="M208.315,79.974,186.224,46.134c-3.047,1.082-4.025,3.588-4.025,8.154V79.967H164.57V54.4c0-9.9,4.448-17.628,14.255-19.585L165.63,14.68H183.7l19.8,30.253c3.158-1.09,4.448-3.484,4.448-8.051V14.68h17.74V37.661c0,11.424-6.857,16.865-14.47,19.044l15.234,23.285Z" transform="translate(-42.573 -3.798)"/><path d="M454.464,49.4c0,21.876-9.689,30.579-32.618,30.579H275.734L268.44,14.68h17.31l5.545,51.588H418.548c14.263,0,18.829-4.685,18.829-18.718V14.68h17.087Zm-103-34.715H368.19V70.211H351.459Z" transform="translate(-69.443 -3.798)"/><path d="M100.778,188.584H83.038V137H44.29V123.29h56.488Zm-38.422-37.34V188.57H44.512V151.245Z" transform="translate(-11.457 -31.894)"/><path d="M198.427,154.21V188.6H166.432V174.885h14.144V154.647c0-12.41-2.832-17.628-12.736-17.628h-3.373l-8.725,51.565H137.81L146.95,137h-8.258V123.29h32.432C190.695,123.29,198.427,132.215,198.427,154.21Z" transform="translate(-35.65 -31.894)"/><path d="M279.472,188.582l-22.091-33.841c-3.047,1.082-4.025,3.588-4.025,8.154v25.679H235.72V163c0-9.9,4.448-17.628,14.263-19.585L236.81,123.28h18.066l19.808,30.253c3.158-1.09,4.448-3.484,4.448-8.051V123.287h17.74v22.981c0,11.431-6.857,16.872-14.478,19.052L297.634,188.6Z" transform="translate(-60.979 -31.891)"/><path d="M396.608,151.037v37.547H378.765V152.675c0-11.646-3.269-15.671-12.41-15.671h-7.724v51.58H330.12V174.87h11.535V137h-7.732V123.29h36.324C388.995,123.29,396.608,130.688,396.608,151.037Z" transform="translate(-85.399 -31.894)"/><path d="M494.79,188.584h-17.74V137H438.31V123.29h56.48Zm-38.415-37.34V188.57H438.525V151.245Z" transform="translate(-113.387 -31.894)"/><path d="M292.875,209.375h18.77L185.237,14.73H166.46Z" transform="translate(-43.062 -3.811)"/></svg>