<svg xmlns="http://www.w3.org/2000/svg" viewBox="0 0 323.48 145.65"><defs><style>.cls-1,.cls-2{fill:#2a3241;}.cls-2{stroke:#2a3241;stroke-miterlimit:10;stroke-width:2.27px;}</style></defs><title>יש</title><g id="Layer_2" data-name="Layer 2"><g id="Layer_1-2" data-name="Layer 1"><path d="M16,87.65H14.12V70.93H1.57V69.51H16ZM3.57,76.91V87.65H1.72V76.91Z"/><path d="M36.05,77.25v10.4H34.24V77.28c0-5.14-1.42-6.35-5.2-6.35H23.39V87.65H21.54V69.51h8C34.21,69.51,36.05,71.08,36.05,77.25Z"/><path d="M49.08,70.93H38.59V67.39h1.75v2.12H51.46l-7,18.14h-1.9Z"/><path d="M53.72,86.22H64.64l-12-16.71h1.93l6.92,9.64C63.4,78.88,65.18,78,65.18,75V69.51H67v5.71c0,3.6-2.26,4.81-4.62,5.2l5.17,7.23H53.72Z"/><path d="M85.7,87.65H83.85V70.93H71.31V69.51H85.7ZM73.3,76.91V87.65H71.46V76.91Z"/><path d="M105,86.22v1.43H89.89V86.22h10.7V70.93H89.89V69.51h12.55V86.22Z"/><path d="M115.36,87.65V69.51h1.85V87.65Z"/><path d="M127.72,87.65h-4.08l-2.06-18.14h1.82l1.9,16.71h2.42c5.74,0,7.53-2.41,7.53-8.76V70.93h-6V69.51h7.77v7.95C137.06,84.86,134.46,87.65,127.72,87.65Z"/><path d="M150.41,70.93H139.93V67.39h1.75v2.12H152.8l-7,18.14h-1.9Z"/><path d="M170.51,80.09c0,5.56-1.91,7.56-6.56,7.56h-2.09V86.22h1.76c3.56,0,5-1.39,5-6.1V70.93H155.76V69.51h14.75Zm-12.67-3.9V90.67H156V76.19Z"/><path d="M173.1,87.65V86.22h2.54c2.15,0,2.93-1,2.93-3.44V70.93h-3.84V69.51h5.66V83c0,3.42-1.09,4.69-4.14,4.69Z"/><path d="M206.92,76.49V87.65h-14.3V69.51h8.76C205.47,69.51,206.92,71.14,206.92,76.49Zm-1.79.3c0-4.59-1.09-5.86-4.2-5.86h-6.5V86.22h10.7Z"/><path d="M211.66,79.57V69.51h1.84V79.57Z"/><path d="M223.68,87.65H219.6l-2.06-18.14h1.82l1.9,16.71h2.42c5.74,0,7.53-2.41,7.53-8.76V70.93h-6V69.51H233v7.95C233,84.86,230.42,87.65,223.68,87.65Z"/><path d="M246.25,78.06c0-5.71-1.45-7.13-5.71-7.13H236V69.51h4.92c5.26,0,7.2,1.81,7.2,8.4v9.74h-1.85Z"/><path d="M266.86,77.34v2.48c0,5.56-1.9,7.83-7,7.83H253V86.22h6.53c4.11,0,5.47-2,5.47-6.56V77.49c0-4.6-1.36-6.56-5.47-6.56h-4.78v8H253v-9.4h6.83C265,69.51,266.86,71.78,266.86,77.34Z"/><path d="M285.54,87.65h-1.85V70.93H271.15V69.51h14.39Zm-12.4-10.74V87.65H271.3V76.91Z"/><path d="M306.47,70.93H296V67.39h1.76v2.12h11.12l-7,18.14h-1.91Z"/><path d="M323.48,77.58v2c0,5.72-1.81,8.08-7,8.08H311V86.22h5.05c4.23,0,5.56-2,5.56-6.71V77.64c0-4.66-1.33-6.71-5.56-6.71H311V69.51h5.44C321.67,69.51,323.48,71.87,323.48,77.58Z"/><path d="M9.31,99.93H0V98.51H11.15v21.16H9.31Z"/><path d="M26.52,99.93H16V95.49h1.75v3h11.1l-7,18.14H20Z"/><path d="M51.43,107.12c0,7.65-2.87,9.53-8.64,9.53H35.08L33.27,98.51h1.78l1.66,16.71h5.78c4.86,0,7.16-1.42,7.16-8.25V98.51h1.78ZM41.7,98.51h1.75v12.27H41.7Z"/><path d="M77.88,99.93H75.4v16.72H73.59V99.93H63.88V98.51h14Z"/><path d="M83.15,108.57V98.51H85v10.06Z"/><path d="M91.41,108.57V98.51h1.84v10.06Z"/><path d="M97.1,116.65v-1.43h2.54c2.14,0,2.93-1,2.93-3.44V99.93H98.73V98.51h5.65V112c0,3.42-1.09,4.69-4.14,4.69Z"/><path d="M119.38,99.93H108.89V95.49h1.76v3h11.09l-7,18.14h-1.91Z"/><path d="M141.78,99.93h-9.31V98.51h11.15v21.16h-1.84Z"/><path d="M158.87,107.06c0-5.71-1.46-7.13-5.72-7.13h-4.56V98.51h4.92c5.26,0,7.2,1.81,7.2,8.4v9.74h-1.84Z"/><path d="M178.76,99.93h-2.47v16.72h-1.82V99.93h-9.7V98.51h14Z"/><path d="M197.75,115.22v1.43H182.67v-1.43h10.7V99.93h-10.7V98.51h12.54v16.71Z"/><path d="M225.29,106.25v10.4h-1.85V106.4c0-5.05-1.69-6.47-5.07-6.47h-4.48v16.72h-5.74v-1.43h4V99.93h-3V98.51h9.55C223.11,98.51,225.29,100.32,225.29,106.25Z"/><path d="M231.92,116.65V98.51h1.84v18.14Z"/><path d="M252.72,116.65l-8-11.16c-1.93.27-2.87,1.6-2.87,3.78v7.38H240V109.3c0-2.72,1.37-4.59,3.87-5l-4.2-5.83h1.91l7.52,10.43c1.94-.21,3-1.3,3-3.72V98.51h1.81v6.77c0,3.11-1.6,4.53-3.9,4.87l4.69,6.5Z"/><path d="M258.83,115.22h10.92l-12-16.71h1.93l6.92,9.64c1.94-.27,3.72-1.15,3.72-4.11V98.51h1.81v5.71c0,3.6-2.26,4.81-4.62,5.2l5.17,7.23H258.83Z"/><path d="M278.34,116.65V98.51h1.84v18.14Z"/><path d="M302.17,106.25v10.4h-1.85V106.4c0-5.05-1.69-6.47-5.08-6.47h-4.47v16.72H285v-1.43h4V99.93h-3V98.51h9.56C300,98.51,302.17,100.32,302.17,106.25Z"/><path d="M322.7,116.65h-1.85V99.93H308.31V98.51H322.7Zm-12.4-10.74v10.74h-1.84V105.91Z"/><path d="M93.8,124.49V133l-.61,5.59h-3.9L88.72,133v-8.52Zm-.09,16.11v5.05h-4.9V140.6Z"/><path d="M114.5,133.71v11.94H98.36V127.51h10C112.72,127.51,114.5,129.29,114.5,133.71Zm-4.83.84c0-2.36-.79-3.23-2.69-3.23h-3.81v10.52h6.5Z"/><path d="M139,137.15c0,6.08-2.69,8.5-9.06,8.5h-10l-2-18.14h4.8l1.54,14.33H129c4,0,5.23-1.3,5.23-5.2v-9.13H139Zm-12.42-9.64h4.66v11.3h-4.66Z"/><path d="M167.21,145.65h-4.92V131.32H151.53v-3.81h15.68Zm-10.67-10.37v10.37h-4.95V135.28Z"/><path d="M183.29,145.65l-6.13-9.41c-.85.31-1.12,1-1.12,2.27v7.14h-4.9v-7.11c0-2.75,1.24-4.89,4-5.44l-3.66-5.59h5l5.5,8.4c.88-.3,1.24-1,1.24-2.23v-6.17h4.93v6.38a5.14,5.14,0,0,1-4,5.29l4.23,6.47Z"/><path d="M199.1,135.82c0-3.38-.85-4.5-3.6-4.5h-4.68v-3.81h5.77c5.41,0,7.47,2,7.47,7.86v10.28h-5Z"/><path d="M225.24,135.22v10.43h-5v-10c0-3.23-.91-4.35-3.45-4.35h-2.15v14.33h-7.92v-3.81H210V131.32h-2.15v-3.81h10.1C223.13,127.51,225.24,129.56,225.24,135.22Z"/><path d="M227.6,145.65v-3.81h1.84c1.57,0,2-.64,2-2.33v-8.19h-2.57v-3.81h7.5v12.6c0,4.24-1.15,5.54-5,5.54Z"/><path d="M92.11,47.67v9.82H84.85V47.67ZM92,1.14V30.59L91.21,40H85.74l-.67-9.38V1.14Z"/><path d="M227.13,22.33c0,28.24-10.61,35.16-31.93,35.16h-78l-6.7-56.35h6.59l6.14,51.11h70.84c18,0,26.45-5.25,26.45-30.48V1.14h6.59ZM160.86,1.14h6.47V54.85h-6.47Z"/><path d="M238.56,27.69V1.14h6.81V27.69Z"/></g></g></svg>